<?xml version="1.0" encoding="utf-8"?>
<!DOCTYPE svg PUBLIC "-//W3C//DTD SVG 1.1//EN" "http://www.w3.org/Graphics/SVG/1.1/DTD/svg11.dtd">
<svg version="1.1" xmlns="http://www.w3.org/2000/svg" xmlns:xlink="http://www.w3.org/1999/xlink" viewBox="-110 -110 220 220" xml:space="preserve">
    <circle fill="none" stroke="#FFF" stroke-width="9" cx="0" cy="0" r="100"/>
    <path fill="#FFF" d="M71.445,17.376C66.95,9.923,60.091,3.316,51.608-1.729c-7.934-4.719-16.337-8.176-24.976-10.277c-0.43-0.105-0.86-0.195-1.29-0.294c-0.955,2.898-2.013,5.735-3.167,8.508c0.777,0.171,1.554,0.343,2.331,0.532c7.768,1.889,15.339,5.007,22.502,9.267c7.213,4.291,12.998,9.83,16.73,16.019c3.3,5.471,3.909,11.334,1.643,15.724c-3.829,5.982-11.354,6.495-14.438,6.439c-7.231-0.139-14.92-2.38-22.239-6.48c-7.267-4.069-13.752-9.067-19.277-14.854C3.574,16.721-1.428,10.088-5.439,3.14c-1.124-1.948-2.182-3.955-3.183-6.008c-3.097,0.279-6.202,0.709-9.342,1.294c1.446,3.175,3.022,6.253,4.731,9.214l0,0c4.369,7.568,9.803,14.777,16.151,21.427c6.144,6.436,13.34,11.984,21.388,16.491c8.605,4.822,17.757,7.459,26.464,7.627c0.211,0.004,0.42,0.006,0.629,0.006c9.385,0,17.465-4.014,21.701-10.812l0.151-0.262C77.106,34.891,76.432,25.642,71.445,17.376z"/>
    <path fill="#FFF" d="M-9.429,22.854c-5.52,5.783-12.006,10.781-19.277,14.854c-7.322,4.101-15.012,6.342-22.238,6.48c-6.388,0.122-11.771-2.282-14.438-6.439c-3.266-6.307,0.052-13.081,1.642-15.723c3.736-6.193,9.521-11.732,16.732-16.019c7.157-4.258,14.728-7.376,22.502-9.267C-16.268-5.264-8.023-6.28,0-6.28c2.249,0,4.516,0.088,6.795,0.247c1.307-2.821,2.487-5.726,3.55-8.738C6.873-15.105,3.419-15.28,0-15.28c-8.739,0-17.699,1.101-26.632,3.274c-8.645,2.103-17.049,5.561-24.976,10.277C-60.087,3.313-66.946,9.92-71.446,17.377c-0.109,0.181-0.215,0.361-0.32,0.542c-4.692,8.127-5.256,17.132-1.487,24.2l0.151,0.262c4.331,6.951,12.678,10.992,22.329,10.806c8.703-0.166,17.854-2.803,26.465-7.626c8.053-4.511,15.249-10.06,21.388-16.492c0.305-0.32,0.599-0.647,0.9-0.97c-2.032-2.276-3.96-4.611-5.784-6.997C-8.34,21.689-8.877,22.276-9.429,22.854z"/>
    <path fill="#FFF" d="M-23.325-15.796c2.987-0.622,5.973-1.124,8.951-1.511c-0.24-0.759-0.48-1.517-0.705-2.285c-2.248-7.672-3.334-15.788-3.225-24.121c0.109-8.392,2.014-16.171,5.507-22.498c3.088-5.593,7.861-9.053,12.796-9.284c7.095,0.325,11.302,6.586,12.795,9.284c3.495,6.332,5.399,14.111,5.507,22.5c0.109,8.328-0.976,16.443-3.226,24.121C12.693-11.455,9.45-3.807,5.438,3.141l0,0C4.314,5.089,3.103,7.008,1.826,8.902c1.79,2.543,3.715,5.017,5.792,7.444c2.027-2.839,3.904-5.743,5.614-8.705c4.37-7.568,7.896-15.878,10.481-24.701c2.501-8.539,3.709-17.545,3.588-26.768c-0.127-9.863-2.419-19.107-6.627-26.732c-0.102-0.185-0.205-0.367-0.309-0.548C15.672-79.236,8.156-84.226,0.15-84.496l-0.302,0c-8.186,0.275-15.858,5.484-20.523,13.935c-4.207,7.62-6.499,16.863-6.628,26.732c-0.12,9.23,1.088,18.236,3.588,26.768C-23.59-16.636-23.453-16.219-23.325-15.796z"/>
</svg>
