<?xml version="1.0" encoding="utf-8"?>
<svg xmlns="http://www.w3.org/2000/svg" xmlns:xlink="http://www.w3.org/1999/xlink" viewBox="0 0 32 32">
    <path fill="none" stroke="black" d="M13,14V7c0-1.105,0.895-2,2-2h2"/>
    <path fill="none" stroke="black" d="M25,5h2c1.105,0,2,0.895,2,2v20c0,1.105-0.895,2-2,2H15c-1.105,0-2-0.895-2-2v-7"/>
    <path fill="none" stroke="black" d="M25,6c0,0.55-0.45,1-1,1h-6c-0.55,0-1-0.45-1-1V4c0-0.55,0.45-1,1-1h6c0.55,0,1,0.45,1,1V6z"/>
    <path d="M15.304,18.8H5.22c-0.561,0-1.015-0.403-1.015-0.9v-1.8c0-0.497,0.455-0.9,1.015-0.9h10.085v-2.396c0-0.55,0.39-0.775,0.866-0.5l7.268,4.196c0.476,0.275,0.476,0.725,0,1l-7.268,4.196c-0.476,0.275-0.866,0.05-0.866-0.5V18.8z"/>
</svg>
