<?xml version="1.0" encoding="utf-8"?>
<svg xmlns="http://www.w3.org/2000/svg" xmlns:xlink="http://www.w3.org/1999/xlink" viewBox="0 0 32 32">
    <path d="M24.025,27.56c0.389,0.389,1.025,0.389,1.414,0l2.121-2.121c0.389-0.389,0.389-1.025,0-1.414L19.535,16l8.025-8.025c0.389-0.389,0.389-1.025,0-1.414L25.44,4.44c-0.389-0.389-1.025-0.389-1.414,0L16,12.465L7.975,4.44c-0.389-0.389-1.025-0.389-1.414,0L4.44,6.56c-0.389,0.389-0.389,1.025,0,1.414L12.465,16L4.44,24.025c-0.389,0.389-0.389,1.025,0,1.414L6.56,27.56c0.389,0.389,1.025,0.389,1.414,0L16,19.536L24.025,27.56z"/>
</svg>
