<?xml version="1.0" encoding="utf-8"?>
<svg xmlns="http://www.w3.org/2000/svg" xmlns:xlink="http://www.w3.org/1999/xlink" viewBox="0 0 32 32">
    <path d="M2.461,14.657C4.732,17.992,5.258,18,11.195,18h13.661c2.759,0,4.921-1.656,4.921-3.833s-2.162-3.833-4.921-3.833s-4.921,1.7-4.921,3.877c0,0.715-0.487,1.106-0.924,1.106c-1.297,0-2,0.115-3.083-0.657c-1.417-1.01-4.716-0.992-12.658-0.992C2.769,13.668,1.765,13.635,2.461,14.657z M21.935,14.222c0-1.02,1.337-1.882,2.921-1.882s2.921,0.862,2.921,1.882s-1.337,1.882-2.921,1.882S21.935,15.242,21.935,14.222z M16.813,16.803c0-0.414,0.336-0.75,0.75-0.75s0.75,0.336,0.75,0.75c0,0.414-0.336,0.75-0.75,0.75S16.813,17.217,16.813,16.803z"/>
	<path d="M13.208,25.574c0.714,2.665,3.027,4.268,5.13,3.704c2.103-0.563,3.304-3.092,2.59-5.757L19.7,19h-3.184c-0.033,0-0.294,0.688-0.84,0.834C13.573,20.398,12.494,22.909,13.208,25.574z M16.199,21.702c0.985-0.264,2.164,0.805,2.574,2.334c0.41,1.53-0.076,3.044-1.062,3.308c-0.985,0.264-2.164-0.805-2.574-2.334S15.214,21.966,16.199,21.702z"/>
	<path d="M18.199,14.323c-0.71,0-1.084-0.045-1.691-0.478c-0.688-0.491-1.642-0.775-3.063-0.942c-0.687-1.907-1.453-4.797-2.603-9.09c-0.13-0.484-0.268-1.486,0.899-1.078c3.81,1.33,4.115,1.793,5.652,7.528l1.087,4.057L18.199,14.323z"/>
</svg>
