<?xml version="1.0" encoding="utf-8"?>
<svg xmlns="http://www.w3.org/2000/svg" xmlns:xlink="http://www.w3.org/1999/xlink" viewBox="0 0 32 32">
    <path stroke="black" stroke-linejoin="round" fill-rule="evenodd" d="M16.492,2.56L16.985,6.545L20.76,7.771L23.495,4.833L24.297,5.415L22.354,8.929L24.687,12.139L28.627,11.37L28.933,12.312L25.297,14.013L25.298,17.982L28.937,19.675L28.632,20.617L24.689,19.856L22.355,23.07L24.303,26.58L23.502,27.162L20.761,24.229L16.986,25.455L16.5,29.44L15.509,29.44L15.016,25.455L11.241,24.23L8.506,27.168L7.705,26.586L9.647,23.072L7.313,19.862L3.373,20.632L3.067,19.689L6.704,17.988L6.703,14.015L3.064,12.321L3.37,11.379L7.312,12.141L9.645,8.93L7.696,5.421L8.497,4.838L11.239,7.772L15.015,6.545L15.501,2.56L16.492,2.56ZM16.001,11.009C18.755,11.009 20.991,13.245 20.991,16C20.991,18.755 18.755,20.991 16.001,20.991C13.246,20.991 11.01,18.755 11.01,16C11.01,13.245 13.246,11.009 16.001,11.009Z"/>
</svg>
