<?xml version="1.0" encoding="utf-8"?>
<svg xmlns="http://www.w3.org/2000/svg" xmlns:xlink="http://www.w3.org/1999/xlink" viewBox="0 0 32 32">
    <path d="M4.298,16.88c0.154-1.186,0.603-2.339,1.239-3.33c0.633-0.997,1.441-1.842,2.304-2.509c0.856-0.688,1.764-1.217,2.648-1.634c0.884-0.421,1.748-0.741,2.551-0.976c0.805-0.255,1.548-0.402,2.211-0.548c0.674-0.115,1.228-0.21,1.696-0.271C17.48,7.554,18,7.515,18,7.491V4.69c0-0.55,0.513-0.775,0.99-0.5l9.539,5.458c0.476,0.275,0.496,0.725,0.02,1l-9.568,5.458c-0.476,0.275-0.98,0.05-0.98-0.5v-3.162c0-0.012-0.491-0.029-0.919-0.05c-0.379-0.002-0.8-0.003-1.328-0.006c-0.541,0.035-1.143,0.055-1.797,0.156c-0.66,0.082-1.35,0.224-2.063,0.433c-0.714,0.206-1.435,0.488-2.114,0.876c-1.382,0.742-2.559,1.963-3.032,3.517c-0.487,1.548-0.149,3.377,0.734,4.854c0.446,0.733,0.961,1.423,1.554,1.991c0.574,0.588,1.2,1.069,1.793,1.5c0.609,0.406,1.188,0.76,1.725,1.035c0.528,0.293,1.021,0.486,1.414,0.678c0.815,0.318,1.281,0.499,1.281,0.499s-0.491-0.108-1.349-0.296c-0.419-0.129-0.947-0.246-1.527-0.458c-0.589-0.193-1.235-0.46-1.936-0.784c-0.686-0.35-1.427-0.754-2.152-1.292c-0.74-0.517-1.442-1.189-2.098-1.967c-0.655-0.781-1.196-1.734-1.555-2.8C4.275,19.264,4.138,18.066,4.298,16.88z"/>
</svg>
