<?xml version="1.0" encoding="utf-8"?>
<svg xmlns="http://www.w3.org/2000/svg" xmlns:xlink="http://www.w3.org/1999/xlink" viewBox="0 0 32 32">
    <path stroke="black" stroke-linejoin="round" d="M24,28V17.5c0-0.552-0.448-1-1-1H9c-0.552,0-1,0.448-1,1V28H7c-1.65,0-3-1.35-3-3V7c0-1.65,1.35-3,3-3h3v6c0,0.552,0.448,1,1,1h10c0.552,0,1-0.448,1-1V4h2l4,4v17c0,1.65-1.35,3-3,3H24z"/>
    <rect x="18" y="4" stroke="black" stroke-linejoin="round" width="2" height="5"/>
    <rect x="7.5" y="26" width="17" height="2.5"/>
</svg>
