<?xml version="1.0" encoding="utf-8"?>
<svg xmlns="http://www.w3.org/2000/svg" xmlns:xlink="http://www.w3.org/1999/xlink" viewBox="0 0 32 32">
    <path d="M28.859,16.88c-0.154-1.186-0.603-2.339-1.239-3.33c-0.633-0.997-1.441-1.842-2.304-2.509c-0.856-0.688-1.764-1.217-2.648-1.634c-0.884-0.421-1.748-0.741-2.551-0.976c-0.805-0.255-1.548-0.402-2.211-0.548c-0.674-0.115-1.307-0.21-1.774-0.271C15.598,7.554,15.225,7.515,15,7.491V4.69c0-0.55-0.435-0.775-0.911-0.5l-9.5,5.458c-0.476,0.275-0.476,0.725,0,1l9.5,5.458c0.476,0.275,0.911,0.05,0.911-0.5v-3.162c0.234-0.012,0.569-0.029,0.997-0.05c0.379-0.002,0.839-0.003,1.367-0.006c0.541,0.035,1.163,0.055,1.816,0.156c0.66,0.082,1.36,0.224,2.073,0.433c0.714,0.206,1.44,0.488,2.119,0.876c1.382,0.742,2.562,1.963,3.034,3.517c0.487,1.548,0.15,3.377-0.733,4.854c-0.446,0.733-0.96,1.423-1.554,1.991c-0.574,0.588-1.2,1.069-1.793,1.5c-0.609,0.406-1.188,0.76-1.725,1.035c-0.528,0.293-1.021,0.486-1.413,0.678c-0.815,0.318-1.281,0.499-1.281,0.499s0.491-0.108,1.349-0.296c0.419-0.129,0.947-0.246,1.527-0.458c0.589-0.193,1.235-0.46,1.936-0.784c0.686-0.35,1.427-0.754,2.152-1.292c0.74-0.517,1.442-1.189,2.098-1.967c0.655-0.781,1.196-1.734,1.555-2.8C28.881,19.264,29.019,18.066,28.859,16.88z"/>
</svg>
