<?xml version="1.0" encoding="utf-8"?>
<svg xmlns="http://www.w3.org/2000/svg" xmlns:xlink="http://www.w3.org/1999/xlink" viewBox="0 0 32 32">
    <polygon fill="none" stroke="black" stroke-width="2" stroke-linejoin="round" points="19.591,19.952 22.743,27.305 19.985,28.487 16.834,21.134 13.485,24.745 13.485,9.513 24.515,20.017 "/>
    <path d="M11.5,14.09c-2-0.774-3.007-2.531-3.007-4.576c0-2.757,2.24-5,4.996-5c2.757,0,4.999,2.243,4.999,5c0,0.599-0.124,1.166-0.318,1.698l1.548,1.475c0.488-0.954,0.768-2.03,0.768-3.173c0-3.86-3.141-7-7.001-7s-6.993,3.14-6.993,7c0,3.165,2.007,5.842,5.007,6.705V14.09z"/>
</svg>
